<svg width="141" height="115" viewBox="0 0 141 115" fill="none" xmlns="http://www.w3.org/2000/svg">
<path d="M0.51001 12.6C0.51001 5.56001 5.96001 0.460007 13.48 0.460007C21 0.460007 26.12 5.16 26.12 12.44C26.12 20.2 20.77 25.41 12.82 25.41C5.46001 25.41 0.51001 20.26 0.51001 12.61V12.6ZM138.33 33.25C137.64 30.85 135.9 30.59 135.18 30.59C132.88 30.59 127.89 31.81 124.14 33.02C115.42 35.82 115.42 37.59 115.42 38.43C115.42 39.27 115.61 40.32 115.86 41.81C119.23 58.64 114.12 77.2 103.51 92.4C99.85 70.79 88.74 47 80.13 36.76C78.91 35.19 77.91 34.08 76.23 34.08C71.71 34 54.39 41.22 54.65 45.73C54.91 56.17 54.22 66.89 49.25 78.89C45.78 85.94 39.54 94.02 32.52 94.02C25.5 94.02 24.3 86.94 24.3 80.99C24.37 72.61 25.14 49.64 25.13 41.58C25.13 38.02 23.07 35.9 19.61 35.9H6.36002C3.21002 35.9 1.17001 38.07 1.17001 41.42V85.46C1.17001 104.12 10.91 114.82 27.88 114.82C46.41 114.74 58.63 100.67 64.66 86.44C67.7 79.04 69.58 70.02 70.49 62.56C76.66 74.52 80.5 87.74 85.47 108.22C85.71 109.98 86.67 111.22 88.16 111.74C91.67 113.19 102.12 114.15 107.52 114.15C108.54 114.15 110.05 113.85 111.44 112.45C129.49 95.15 146.78 61.81 138.32 33.24L138.33 33.25Z" fill="#FFADE3"/>
</svg>
