<svg width="80" height="80" viewBox="0 0 80 80" fill="none" xmlns="http://www.w3.org/2000/svg">
<path d="M75.0793 52.5818C75.0793 52.5818 73.1436 52.5569 71.1748 51.4531C69.2059 50.352 68.87 49.5525 67.9944 49.6411C67.1187 49.7296 67.3886 48.6368 67.3886 48.6368C67.3886 48.6368 67.4216 48.15 66.6837 47.6686C66.5955 47.6105 66.411 47.5192 66.1605 47.4002C67.5207 42.5451 67.5207 37.4576 66.1605 32.6025C66.4138 32.4836 66.5983 32.3923 66.6837 32.3342C67.4216 31.8528 67.3886 31.3659 67.3886 31.3659C67.3886 31.3659 67.1187 30.276 67.9944 30.3617C68.87 30.4502 69.2032 29.6507 71.1748 28.5497C73.1436 27.4459 75.0793 27.421 75.0793 27.421C80.2313 26.5053 79.7219 24.0902 79.5044 23.4843C79.2318 22.9006 77.8935 20.8313 73.6034 23.844C73.6034 23.844 72.2156 25.2023 70.0485 25.822C67.8787 26.4417 67.0802 26.1152 66.5239 26.7985C65.9677 27.4819 65.3895 26.5191 65.3895 26.5191C65.3895 26.5191 65.0701 26.1512 64.2109 26.3338C64.1091 26.3559 63.9108 26.4223 63.6492 26.5191C61.5124 22.6959 58.5083 19.4536 54.8295 17.0275C54.309 16.6844 53.7748 16.3608 53.2351 16.0564C53.3315 15.7909 53.3976 15.5944 53.4196 15.4921C53.6014 14.629 53.2351 14.3081 53.2351 14.3081C53.2351 14.3081 52.2769 13.7271 52.957 13.1683C53.6372 12.6095 53.3122 11.8072 53.929 9.62723C54.5458 7.44727 55.8979 6.05575 55.8979 6.05575C58.8965 1.74563 56.8368 0.40391 56.2558 0.127265C55.6528 -0.0912835 53.2489 -0.603075 52.3375 4.57294C52.3375 4.57294 52.3127 6.51775 51.214 8.49576C50.1181 10.4738 49.3223 10.8113 49.4104 11.691C49.4985 12.5707 48.4109 12.2996 48.4109 12.2996C48.4109 12.2996 47.9262 12.2664 47.4471 13.0078C47.3893 13.0964 47.2984 13.2817 47.18 13.5362C44.7954 12.8667 42.3227 12.5182 39.8142 12.5182H39.8059C37.3056 12.5182 34.8412 12.8612 32.4483 13.5362C32.3299 13.2817 32.239 13.0964 32.1812 13.0078C31.7021 12.2664 31.2175 12.2996 31.2175 12.2996C31.2175 12.2996 30.1325 12.5707 30.2179 11.691C30.306 10.8113 29.5102 10.4765 28.4143 8.49576C27.3156 6.51775 27.2908 4.57294 27.2908 4.57294C26.3794 -0.605842 23.9783 -0.0912835 23.3752 0.124499C22.7942 0.398377 20.7345 1.74287 23.7332 6.05299C23.7332 6.05299 25.0852 7.44727 25.702 9.62447C26.3188 11.8044 25.9939 12.6067 26.674 13.1655C27.3542 13.7243 26.3959 14.3053 26.3959 14.3053C26.3959 14.3053 26.0297 14.6262 26.2114 15.4893C26.2335 15.5917 26.2968 15.7881 26.3932 16.0509C22.0122 18.5158 18.4325 22.115 15.9791 26.5136C15.7175 26.4168 15.522 26.3531 15.4201 26.331C14.561 26.1484 14.2416 26.5164 14.2416 26.5164C14.2416 26.5164 13.6633 27.4791 13.1071 26.7958C12.5509 26.1125 11.7523 26.4389 9.58252 25.8192C7.4127 25.1995 6.02764 23.8412 6.02764 23.8412C1.73755 20.8286 0.402064 22.8979 0.126706 23.4816C-0.0908278 24.0874 -0.600241 26.5025 4.55172 27.4182C4.55172 27.4182 6.48749 27.4431 8.45631 28.5469C10.4251 29.648 10.7611 30.4475 11.6367 30.359C12.5123 30.2704 12.2425 31.3632 12.2425 31.3632C12.2425 31.3632 12.2094 31.8501 12.9474 32.3314C13.0355 32.3895 13.22 32.4808 13.4706 32.5998C12.1103 37.4549 12.1103 42.5424 13.4706 47.3975C13.2173 47.5164 13.0328 47.6077 12.9474 47.6658C12.2094 48.1472 12.2425 48.6341 12.2425 48.6341C12.2425 48.6341 12.5123 49.7241 11.6367 49.6383C10.7611 49.5498 10.4279 50.3493 8.45631 51.4503C6.48749 52.5541 4.55172 52.579 4.55172 52.579C-0.602995 53.4975 -0.0908278 55.9098 0.123952 56.5184C0.396557 57.1022 1.7348 59.1715 6.02489 56.1588C6.02489 56.1588 7.4127 54.8005 9.57977 54.1808C11.7496 53.5611 12.5481 53.8876 13.1044 53.2042C13.6606 52.5209 14.2388 53.4837 14.2388 53.4837C14.2388 53.4837 14.5583 53.8516 15.4174 53.669C15.5193 53.6469 15.7175 53.5805 15.9791 53.4837C18.1159 57.3069 21.1201 60.5492 24.7988 62.9753C25.3193 63.3184 25.8507 63.642 26.3904 63.9463C26.294 64.2119 26.228 64.4083 26.2059 64.5107C26.0242 65.3738 26.3904 65.6947 26.3904 65.6947C26.3904 65.6947 27.3487 66.2757 26.6685 66.8345C25.9884 67.3933 26.3133 68.1956 25.6965 70.3756C25.0797 72.5555 23.7277 73.947 23.7277 73.947C20.729 78.2572 22.7887 79.5989 23.3697 79.8755C23.9728 80.0941 26.3766 80.6059 27.2881 75.4299C27.2881 75.4299 27.3129 73.485 28.4115 71.507C29.5075 69.529 30.3033 69.1915 30.2151 68.3118C30.127 67.4321 31.2147 67.7032 31.2147 67.7032C31.2147 67.7032 31.6993 67.7364 32.1785 66.995C32.2363 66.9064 32.3271 66.7211 32.4456 66.4666C34.8302 67.1361 37.3056 67.4846 39.8169 67.4846C42.3282 67.4846 44.7816 67.1416 47.1745 66.4666C47.2929 66.7211 47.3838 66.9064 47.4416 66.995C47.9207 67.7364 48.4053 67.7032 48.4053 67.7032C48.4053 67.7032 49.4903 67.4321 49.4049 68.3118C49.3168 69.1915 50.1126 69.5263 51.2085 71.507C52.3072 73.485 52.332 75.4299 52.332 75.4299C53.2434 80.6059 55.6473 80.0941 56.2503 79.8755C56.8313 79.6017 58.891 78.2572 55.8923 73.947C55.8923 73.947 54.5403 72.5527 53.9235 70.3756C53.3067 68.1956 53.6317 67.3933 52.9515 66.8345C52.2714 66.2757 53.2296 65.6947 53.2296 65.6947C53.2296 65.6947 53.5959 65.3738 53.4141 64.5107C53.3921 64.4083 53.3288 64.2119 53.2324 63.9491C57.6133 61.4842 61.193 57.8851 63.6464 53.4864C63.908 53.5832 64.1035 53.6469 64.2054 53.669C65.0645 53.8516 65.384 53.4837 65.384 53.4837C65.384 53.4837 65.9622 52.5209 66.5184 53.2042C67.0747 53.8876 67.8732 53.5611 70.043 54.1808C72.2129 54.8005 73.5979 56.1588 73.5979 56.1588C77.888 59.1715 79.2235 57.1022 79.4988 56.5184C79.7164 55.9126 80.2258 53.4975 75.0738 52.5818H75.0793ZM59.4087 44.5812C58.7781 44.3267 58.3706 44.1663 58.3706 44.1663C58.3706 44.1663 57.5748 43.9588 57.0846 44.4236C57.0846 44.4236 53.9318 43.104 51.3737 42.2408C51.3737 42.2408 50.7211 42.2408 50.2613 42.3902C49.8014 42.5396 49.3416 42.0748 49.3416 42.0748C49.3416 42.0748 48.5623 40.7746 47.4829 40.5339C47.5077 40.1826 47.5077 39.8285 47.4829 39.4744C48.5623 39.2337 49.3416 37.9335 49.3416 37.9335C49.3416 37.9335 49.8014 37.4687 50.2613 37.6181C50.7211 37.7675 51.3737 37.7675 51.3737 37.7675C53.9318 36.9044 57.0846 35.5848 57.0846 35.5848C57.5775 36.0495 58.3706 35.842 58.3706 35.842C58.3706 35.842 58.7781 35.6788 59.4114 35.4243C60.1274 38.5034 60.0943 41.6294 59.4114 44.584L59.4087 44.5812ZM56.8974 29.3188C56.2696 29.5871 55.8676 29.7642 55.8676 29.7642C55.8676 29.7642 55.1599 30.1819 55.1379 30.8597C55.1379 30.8597 51.9795 32.1654 49.5646 33.3744C49.5646 33.3744 49.1048 33.8391 48.8817 34.2707C48.6614 34.7023 48.0088 34.6995 48.0088 34.6995C48.0088 34.6995 46.5439 34.3343 45.6105 34.9291C45.3764 34.6608 45.1286 34.409 44.8642 34.1794C45.4563 33.2416 45.0928 31.7698 45.0928 31.7698C45.0928 31.7698 45.0928 31.1142 45.5196 30.8929C45.9491 30.6716 46.4117 30.2068 46.4117 30.2068C47.6151 27.7806 48.9148 24.6075 48.9148 24.6075C49.5894 24.5854 50.0052 23.8744 50.0052 23.8744C50.0052 23.8744 50.1787 23.4705 50.4458 22.8398C53.0093 24.4415 55.2342 26.6298 56.8947 29.316L56.8974 29.3188ZM39.8059 19.7828C41.3534 19.7828 42.8844 19.9654 44.3741 20.314C44.1208 20.9503 43.9583 21.3597 43.9583 21.3597C43.9583 21.3597 43.7518 22.1592 44.2144 22.6516C44.2144 22.6516 42.9009 25.8192 42.0418 28.3892C42.0418 28.3892 42.0418 29.0449 42.1905 29.5069C42.3392 29.9689 41.8766 30.4309 41.8766 30.4309C41.8766 30.4309 40.5824 31.2138 40.3428 32.2982C40.1666 32.2872 39.9904 32.2789 39.8114 32.2789C39.6324 32.2789 39.4617 32.2872 39.2855 32.2982C39.0459 31.2138 37.7517 30.4309 37.7517 30.4309C37.7517 30.4309 37.2891 29.9689 37.4378 29.5069C37.5865 29.0449 37.5865 28.3892 37.5865 28.3892C36.7274 25.8192 35.4139 22.6516 35.4139 22.6516C35.8765 22.1565 35.67 21.3597 35.67 21.3597C35.67 21.3597 35.5075 20.9503 35.2542 20.3168C36.7687 19.9599 38.2942 19.7828 39.8059 19.7828ZM29.1798 22.8425C29.4469 23.4705 29.6204 23.8772 29.6204 23.8772C29.6204 23.8772 30.0362 24.5882 30.7108 24.6103C30.7108 24.6103 32.0105 27.7834 33.2138 30.2096C33.2138 30.2096 33.6764 30.6716 34.106 30.8956C34.5355 31.1197 34.5328 31.7726 34.5328 31.7726C34.5328 31.7726 34.1693 33.2444 34.7613 34.1822C34.4942 34.4173 34.2436 34.6663 34.0151 34.9319C33.0816 34.3371 31.6167 34.7023 31.6167 34.7023C31.6167 34.7023 30.9641 34.7023 30.7438 34.2735C30.5236 33.8419 30.0609 33.3771 30.0609 33.3771C27.6461 32.1682 24.4877 30.8624 24.4877 30.8624C24.4657 30.1847 23.758 29.7669 23.758 29.7669C23.758 29.7669 23.356 29.5927 22.7309 29.3243C24.3252 26.7487 26.5033 24.5135 29.1743 22.8453L29.1798 22.8425ZM20.2196 35.4243C20.8502 35.6788 21.2577 35.8393 21.2577 35.8393C21.2577 35.8393 22.0535 36.0468 22.5437 35.582C22.5437 35.582 25.6965 36.9016 28.2546 37.7647C28.2546 37.7647 28.9072 37.7647 29.367 37.6153C29.8269 37.466 30.2867 37.9307 30.2867 37.9307C30.2867 37.9307 31.066 39.2309 32.1454 39.4716C32.1206 39.823 32.1206 40.1771 32.1454 40.5312C31.066 40.7718 30.2867 42.0721 30.2867 42.0721C30.2867 42.0721 29.8269 42.5368 29.367 42.3875C28.9072 42.2381 28.2546 42.2381 28.2546 42.2381C25.6965 43.1012 22.5437 44.4208 22.5437 44.4208C22.0508 43.956 21.2577 44.1635 21.2577 44.1635C21.2577 44.1635 20.8502 44.3267 20.2169 44.5812C19.5009 41.5022 19.534 38.3761 20.2169 35.4215L20.2196 35.4243ZM22.7309 50.6868C23.3587 50.4184 23.7607 50.2414 23.7607 50.2414C23.7607 50.2414 24.4684 49.8237 24.4904 49.1459C24.4904 49.1459 27.6488 47.8401 30.0637 46.6312C30.0637 46.6312 30.5236 46.1664 30.7466 45.7349C30.9669 45.3033 31.6195 45.3061 31.6195 45.3061C31.6195 45.3061 33.0844 45.6712 34.0179 45.0764C34.2519 45.3448 34.4997 45.5965 34.7641 45.8261C34.1721 46.764 34.5355 48.2357 34.5355 48.2357C34.5355 48.2357 34.5355 48.8914 34.1087 49.1127C33.6792 49.334 33.2166 49.7988 33.2166 49.7988C32.0132 52.2249 30.7135 55.398 30.7135 55.398C30.0389 55.4202 29.6231 56.1311 29.6231 56.1311C29.6231 56.1311 29.4497 56.535 29.1826 57.1658C26.619 55.564 24.3941 53.3758 22.7337 50.6895L22.7309 50.6868ZM39.8224 60.2227C38.2749 60.2227 36.7439 60.0401 35.2542 59.6916C35.5075 59.0553 35.67 58.6458 35.67 58.6458C35.67 58.6458 35.8765 57.8463 35.4139 57.3539C35.4139 57.3539 36.7274 54.1863 37.5865 51.6163C37.5865 51.6163 37.5865 50.9607 37.4378 50.4987C37.2891 50.0367 37.7517 49.5747 37.7517 49.5747C37.7517 49.5747 39.0459 48.7918 39.2855 47.7073C39.4617 47.7184 39.6379 47.7267 39.8169 47.7267C39.9959 47.7267 40.1666 47.7184 40.3428 47.7073C40.5824 48.7918 41.8766 49.5747 41.8766 49.5747C41.8766 49.5747 42.3392 50.0367 42.1905 50.4987C42.0418 50.9607 42.0418 51.6163 42.0418 51.6163C42.9009 54.1863 44.2144 57.3539 44.2144 57.3539C43.7518 57.8491 43.9583 58.6458 43.9583 58.6458C43.9583 58.6458 44.1208 59.0553 44.3741 59.6888C42.8596 60.0457 41.3341 60.2227 39.8224 60.2227ZM50.4485 57.163C50.1814 56.535 50.0079 56.1284 50.0079 56.1284C50.0079 56.1284 49.5921 55.4174 48.9175 55.3953C48.9175 55.3953 47.6178 52.2222 46.4145 49.796C46.4145 49.796 45.9519 49.334 45.5223 49.1099C45.0928 48.8886 45.0955 48.2329 45.0955 48.2329C45.0955 48.2329 45.459 46.7612 44.867 45.8234C45.1341 45.5882 45.3847 45.3392 45.6132 45.0737C46.5467 45.6685 48.0116 45.3033 48.0116 45.3033C48.0116 45.3033 48.6642 45.3033 48.8845 45.7321C49.1048 46.1636 49.5674 46.6284 49.5674 46.6284C51.9823 47.8373 55.1406 49.1431 55.1406 49.1431C55.1626 49.8209 55.8703 50.2386 55.8703 50.2386C55.8703 50.2386 56.2723 50.4129 56.8974 50.6812C55.3031 53.2568 53.125 55.4921 50.4513 57.1603L50.4485 57.163Z" fill="#00AEEF"/>
</svg>
