<svg width="163" height="63" viewBox="0 0 163 63" fill="none" xmlns="http://www.w3.org/2000/svg">
<g clip-path="url(#clip0_1_299)">
<path d="M63.5511 30.606C62.636 30.606 61.673 30.5537 60.7579 30.5059C61.673 33.2946 64.1611 34.0559 67.9217 34.0559C70.362 34.0559 72.9025 33.4686 74.493 32.9248C75.0072 32.7508 75.5475 33.0945 75.6042 33.6339L76.0617 37.9627C76.114 38.463 75.8308 38.9416 75.3645 39.1243C73.4777 39.8682 70.2748 40.5469 66.8018 40.5469C57.6596 40.5469 52.3259 35.6787 52.3259 27.9217C52.3259 18.8943 58.1695 12.0466 67.9697 12.0466C75.5388 12.0466 78.9421 15.5966 78.9421 20.4649C78.9421 27.5127 72.5408 30.606 63.5511 30.606ZM63.4988 24.9242C67.5644 24.9242 70.7106 23.5537 70.7106 20.7172C70.7106 18.9944 69.6953 18.0286 67.5601 18.0286C64.1045 18.0286 61.5161 20.7172 60.7012 24.7719C61.5161 24.872 62.4268 24.9242 63.4944 24.9242H63.4988Z" fill="#001A70"/>
<path d="M106.765 31.2673C106.391 33.3729 107.096 33.7514 109.445 33.7993C109.776 33.8036 110.033 34.0951 109.994 34.4257L109.48 38.9198C109.428 39.3723 109.11 39.7464 108.67 39.8726C107.789 40.1293 106.608 40.2468 105.489 40.2468C100.917 40.2468 97.6666 38.0149 98.6297 32.4376L100.203 23.4624C100.761 20.317 99.2877 18.9509 96.5947 18.9509C94.3069 18.9509 92.3286 19.7645 90.7032 21.4873L87.7139 38.6588C87.6224 39.1983 87.1518 39.5898 86.6027 39.5898H80.9161C80.2145 39.5898 79.6872 38.959 79.8092 38.2716L84.1015 13.9609C84.1886 13.4649 84.5982 13.0864 85.1037 13.0385L90.2152 12.5556C90.8078 12.4991 91.3438 12.9167 91.4353 13.5041C91.4963 13.8956 91.5355 14.2959 91.566 14.6917C93.7012 13.1691 96.4945 12.0553 100.098 12.0553C106.652 12.0553 109.493 16.1622 108.225 23.3624L106.752 31.2716L106.765 31.2673Z" fill="#001A70"/>
<path d="M124.353 19.0945L122.422 29.9969C121.912 32.7856 123.385 33.7514 126.283 33.7514C127.812 33.7514 129.037 33.5991 129.939 33.4164C130.301 33.3424 130.632 33.6252 130.614 33.995L130.383 38.5196C130.362 38.9764 130.065 39.381 129.63 39.5245C128.226 39.9944 126 40.2424 123.49 40.2424C117.799 40.2424 113.127 37.7582 114.348 30.9627L116.483 19.0945H111.572C110.827 19.0945 110.286 18.381 110.487 17.6631L111.633 13.6215C111.737 13.2604 112.069 13.0081 112.443 13.0081H117.494L118.81 5.66437C118.901 5.15101 119.333 4.76817 119.856 4.74206L125.93 4.39837C126.475 4.36792 126.902 4.85083 126.81 5.38594L125.472 13.0081H132.196C132.898 13.0081 133.429 13.6432 133.303 14.335L132.558 18.4027C132.484 18.803 132.135 19.0945 131.726 19.0945H124.353Z" fill="#001A70"/>
<path d="M159.784 31.3151C159.418 33.4121 160.163 33.7471 162.311 33.7949C162.725 33.8036 163.048 34.1647 163 34.578L162.508 38.9068C162.455 39.3549 162.142 39.7334 161.706 39.8595C160.873 40.1032 159.767 40.2467 158.773 40.2467C155.575 40.2467 153.339 39.2331 152.272 37.358C150.546 39.0808 148.106 40.5513 144.45 40.5513C137.848 40.5513 133.578 36.1398 133.578 28.7874C133.578 19.2554 139.722 12.051 150.136 12.051C156.063 12.051 159.71 14.1784 161.523 16.097C162.011 16.6103 162.22 17.3238 162.102 18.0242L159.788 31.3238L159.784 31.3151ZM146.528 34.0037C146.628 34.0037 146.724 34.0037 146.825 33.9994C149.535 33.8819 151.77 31.8198 152.228 29.1485L153.893 19.4512C153.03 18.8421 151.709 18.3375 149.827 18.3375C144.341 18.3375 141.7 22.849 141.7 28.0218C141.7 31.7241 143.225 34.0037 146.524 34.0037H146.528Z" fill="#001A70"/>
<path d="M4.42731 8.96209C7.29025 8.96209 9.21194 7.09136 9.21194 4.30267C9.2163 1.688 7.42969 0 4.66698 0C1.90427 0 0 1.83592 0 4.36358C0 7.11311 1.7779 8.96209 4.42731 8.96209Z" fill="#001A70"/>
<path d="M19.2649 25.816C18.5241 25.816 18.3019 26.3686 18.2104 26.6035L18.2017 26.6209C17.2474 29.3226 14.5892 33.6078 11.5215 33.6078C9.07688 33.6078 8.56268 31.0628 8.56268 28.9267C8.56268 27.913 8.62369 25.5637 8.68905 23.0796C8.76749 20.0429 8.859 16.6016 8.859 14.77C8.859 13.491 8.11821 12.7296 6.87194 12.7296H2.10473C0.97176 12.7296 0.239685 13.5084 0.239685 14.7135V30.5364C0.239685 37.2405 3.74319 41.0864 9.85253 41.0864C17.2212 41.0864 21.9013 34.752 23.6704 29.3269C23.7227 29.1659 23.8142 28.8527 23.8142 28.5743C23.8142 27.404 19.7965 25.8204 19.2649 25.8204V25.816Z" fill="#001A70"/>
<path d="M49.5894 11.7812C49.341 10.9198 48.7135 10.8285 48.4564 10.8285C47.6284 10.8285 45.8331 11.2679 44.4823 11.6986C41.3448 12.7079 41.3448 13.3387 41.3448 13.6433C41.3448 13.9478 41.4102 14.3219 41.5017 14.8571C41.6629 15.7794 41.8808 17.041 41.8808 18.5811C41.8808 23.4711 40.177 28.5699 37.0613 33.0292C35.7453 25.2635 31.7494 16.7191 28.6511 13.0429C28.211 12.4773 27.8537 12.0771 27.248 12.0771C26.2588 12.0771 24.3023 12.8036 22.7945 13.5214C20.5983 14.5743 19.4828 15.4922 19.4828 16.2579V18.6377C19.4828 20.8999 19.0078 24.6544 17.6744 27.7825L17.6526 27.8477C17.5698 28.1436 17.3693 28.5699 17.2081 28.9136C16.9641 29.427 16.8595 29.6662 16.8595 29.8794C16.8595 30.1144 16.8595 30.6669 18.9904 31.8024C19.6919 32.1765 21.0297 32.8117 21.5831 32.8117C22.0712 32.8117 22.3718 32.2896 22.6377 31.8241C22.6682 31.7719 22.6987 31.7197 22.7248 31.6762L22.7466 31.637C23.9319 29.1659 24.8382 25.2548 25.1781 22.3095C27.4005 26.6078 28.7819 31.3586 30.5685 38.7153C30.6556 39.3462 30.9999 39.7943 31.5359 39.9814C32.7996 40.5034 36.5558 40.8471 38.5036 40.8471C38.8697 40.8471 39.4144 40.7383 39.9155 40.238C45.1141 35.3959 50.3824 26.0553 50.3824 17.5718C50.3824 16.1405 50.2996 13.9782 49.5894 11.7856V11.7812Z" fill="#001A70"/>
<path d="M16.3323 60.22C15.7396 60.0808 15.2646 59.8894 14.903 59.637C14.7679 59.55 14.7025 59.4587 14.7025 59.3673C14.7025 59.3064 14.7243 59.2368 14.7722 59.1672L15.3518 58.2449C15.4128 58.1492 15.4782 58.1013 15.5392 58.1013C15.5784 58.1013 15.6438 58.1274 15.7396 58.184C16.0316 58.3493 16.3628 58.4841 16.7332 58.5842C17.1035 58.6886 17.4696 58.7365 17.8313 58.7365C18.1929 58.7365 18.4762 58.6799 18.6548 58.5712C18.8335 58.4624 18.9207 58.284 18.9207 58.0404C18.9207 57.7968 18.8248 57.6184 18.6331 57.4835C18.4413 57.3487 18.0796 57.179 17.5524 56.9745C16.7549 56.6743 16.1362 56.3393 15.6917 55.9652C15.2472 55.591 15.025 55.082 15.025 54.4382C15.025 53.6594 15.3039 53.0634 15.866 52.6544C16.4238 52.2455 17.1689 52.041 18.1014 52.041C18.7464 52.041 19.2998 52.0976 19.7617 52.2107C20.2236 52.3238 20.6158 52.4978 20.9382 52.7371C21.0733 52.8415 21.1387 52.9329 21.1387 53.0199C21.1387 53.0764 21.1169 53.1373 21.069 53.207L20.4894 54.1293C20.4197 54.225 20.3543 54.2728 20.302 54.2728C20.2628 54.2728 20.1974 54.2467 20.1016 54.1902C19.644 53.89 19.0993 53.7421 18.4718 53.7421C18.1319 53.7421 17.8705 53.7986 17.6918 53.9074C17.5088 54.0162 17.4216 54.1989 17.4216 54.4512C17.4216 54.6252 17.4696 54.7644 17.5655 54.8776C17.6613 54.9863 17.7877 55.082 17.9489 55.1647C18.1101 55.2474 18.3629 55.3518 18.6984 55.4779L18.925 55.5606C19.5089 55.7868 19.9665 56.0087 20.302 56.2175C20.6376 56.4263 20.8903 56.683 21.0646 56.9832C21.2389 57.2877 21.326 57.6663 21.326 58.1231C21.326 58.8235 21.0646 59.3804 20.5417 59.798C20.0188 60.2157 19.2475 60.4245 18.2278 60.4245C17.5655 60.4245 16.938 60.3549 16.3497 60.22H16.3323Z" fill="#BB29BB"/>
<path d="M23.5179 59.3368C22.8032 58.6103 22.4459 57.5749 22.4459 56.2393C22.4459 54.9037 22.8032 53.8682 23.5179 53.1417C24.2325 52.4152 25.274 52.0497 26.6466 52.0497C28.0193 52.0497 29.0607 52.4152 29.7754 53.1417C30.49 53.8682 30.8474 54.9037 30.8474 56.2393C30.8474 57.5749 30.49 58.6103 29.7754 59.3368C29.0607 60.0634 28.0193 60.4288 26.6466 60.4288C25.274 60.4288 24.2325 60.0634 23.5179 59.3368ZM28.0236 58.1143C28.32 57.6967 28.4681 57.0702 28.4681 56.2393C28.4681 55.4083 28.32 54.7905 28.0236 54.3729C27.7273 53.9552 27.2698 53.7464 26.6466 53.7464C26.0235 53.7464 25.566 53.9552 25.2696 54.3729C24.9733 54.7905 24.8252 55.4127 24.8252 56.2393C24.8252 57.0659 24.9733 57.701 25.2696 58.1143C25.566 58.532 26.0235 58.7408 26.6466 58.7408C27.2698 58.7408 27.7273 58.532 28.0236 58.1143Z" fill="#BB29BB"/>
<path d="M32.3507 60.1069C32.2592 60.0112 32.2156 59.8633 32.2156 59.6588V52.8241C32.2156 52.6197 32.2636 52.4674 32.3594 52.3717C32.4553 52.2716 32.6122 52.2238 32.8344 52.2238H33.9805C34.2071 52.2238 34.3726 52.2716 34.4642 52.3717C34.56 52.4717 34.608 52.6197 34.608 52.8241V58.5364H37.6583C37.8805 58.5364 38.0287 58.5799 38.1071 58.6712C38.1855 58.7626 38.2248 58.9149 38.2248 59.1237V59.6675C38.2248 59.872 38.1855 60.0199 38.1071 60.1113C38.0287 60.2026 37.8761 60.2461 37.6583 60.2461H32.8344C32.6078 60.2461 32.4466 60.1983 32.3551 60.1026L32.3507 60.1069Z" fill="#BB29BB"/>
<path d="M40.6868 60.0634C40.1159 59.8198 39.6715 59.4674 39.3577 59.0019C39.044 58.5364 38.8828 57.9882 38.8828 57.3487V52.8285C38.8828 52.624 38.9307 52.4717 39.0265 52.376C39.1224 52.2759 39.2793 52.2281 39.5015 52.2281H40.6476C40.8742 52.2281 41.0398 52.2759 41.1313 52.376C41.2271 52.4761 41.2751 52.624 41.2751 52.8285V57.3835C41.2751 57.8229 41.3971 58.1622 41.6455 58.3928C41.8938 58.6234 42.2337 58.7408 42.6695 58.7408C43.1053 58.7408 43.4408 58.6234 43.6848 58.3928C43.9288 58.1622 44.0508 57.8229 44.0508 57.3835V52.8285C44.0508 52.624 44.0988 52.4717 44.1947 52.376C44.2905 52.2759 44.4474 52.2281 44.6696 52.2281H45.8157C46.0423 52.2281 46.2079 52.2759 46.3081 52.376C46.4083 52.4761 46.4562 52.624 46.4562 52.8285V57.3487C46.4562 57.9882 46.295 58.5364 45.9769 59.0019C45.6588 59.4674 45.2143 59.8198 44.6478 60.0634C44.0814 60.307 43.4234 60.4288 42.6739 60.4288C41.9243 60.4288 41.2664 60.307 40.6911 60.0634H40.6868Z" fill="#BB29BB"/>
<path d="M55.263 59.5283C55.263 59.5979 55.215 59.6718 55.1192 59.7415C54.5919 60.1025 53.8598 60.3244 52.9317 60.4027C52.9317 60.4419 52.9229 60.4723 52.9099 60.4984L52.6397 61.0901C52.9055 61.138 53.106 61.2337 53.2323 61.3729C53.3587 61.5165 53.4197 61.7122 53.4197 61.9646C53.4197 62.2648 53.289 62.5127 53.0275 62.7085C52.7661 62.9043 52.3826 63.0043 51.8684 63.0043C51.6549 63.0043 51.4326 62.9826 51.206 62.9434C50.9751 62.9043 50.8051 62.8521 50.6875 62.7912C50.6178 62.752 50.5742 62.7216 50.5568 62.6955C50.5393 62.6737 50.5437 62.6302 50.5698 62.578L50.8182 61.9515C50.84 61.895 50.8749 61.8689 50.9141 61.8689C50.9446 61.8689 50.9838 61.8819 51.0317 61.9037C51.1886 61.982 51.3586 62.0211 51.5416 62.0211C51.803 62.0211 51.9338 61.9385 51.9338 61.7731C51.9338 61.6557 51.8858 61.573 51.79 61.5295C51.6941 61.486 51.5372 61.4643 51.315 61.4643H51.1145C51.0492 61.4643 51.01 61.4469 50.9882 61.4121C50.9664 61.3773 50.9707 61.3294 50.9925 61.2772L51.3106 60.4723C51.3281 60.4245 51.3411 60.394 51.3586 60.3766C50.2082 60.2418 49.3192 59.8241 48.6961 59.1237C48.0729 58.4232 47.7635 57.4574 47.7635 56.2306C47.7635 54.8515 48.1383 53.8117 48.8922 53.1025C49.646 52.3934 50.718 52.041 52.1124 52.041C52.7181 52.041 53.2672 52.1019 53.7552 52.2237C54.2433 52.3456 54.6529 52.5152 54.9841 52.7371C55.0712 52.7937 55.1148 52.8633 55.1148 52.9503C55.1148 53.0068 55.0887 53.0895 55.032 53.1983L54.5222 54.0597C54.4742 54.1641 54.4132 54.2119 54.3348 54.2119C54.2869 54.2119 54.2084 54.1858 54.0995 54.1293C53.6245 53.8682 53.0711 53.7377 52.4305 53.7377C51.6985 53.7377 51.132 53.9465 50.7354 54.3685C50.3389 54.7905 50.1384 55.4083 50.1384 56.2262C50.1384 57.0441 50.352 57.6662 50.779 58.0926C51.206 58.519 51.7856 58.7321 52.5177 58.7321C53.1626 58.7321 53.7378 58.6016 54.2302 58.3406C54.3392 58.284 54.4176 58.2579 54.4655 58.2579C54.5352 58.2579 54.6006 58.3058 54.6529 58.4015L55.1845 59.3107C55.2325 59.3891 55.2542 59.4587 55.2542 59.5239L55.263 59.5283Z" fill="#BB29BB"/>
<path d="M57.4548 59.3369C56.7402 58.6103 56.3829 57.5749 56.3829 56.2393C56.3829 54.9037 56.7402 53.8682 57.4548 53.1417C58.1695 52.4152 59.2109 52.0497 60.5836 52.0497C61.9562 52.0497 62.9977 52.4152 63.7123 53.1417C64.427 53.8682 64.7843 54.9037 64.7843 56.2393C64.7843 57.5749 64.427 58.6103 63.7123 59.3369C62.9977 60.0634 61.9562 60.4288 60.5836 60.4288C59.2109 60.4288 58.1695 60.0634 57.4548 59.3369ZM61.2111 51.4276C61.0629 51.3754 60.8756 51.2971 60.6533 51.184C60.4703 51.097 60.3178 51.0317 60.1914 50.9838C60.065 50.936 59.9387 50.9142 59.8123 50.9142C59.6685 50.9142 59.5552 50.9403 59.4637 50.9969C59.3722 51.0535 59.2632 51.1492 59.1369 51.2927C59.0584 51.3884 58.9669 51.4363 58.8667 51.4363C58.7316 51.4363 58.5268 51.3319 58.2523 51.1187C58.1172 51.023 58.0213 50.936 57.9603 50.8577C57.8993 50.7794 57.8732 50.7011 57.8732 50.6228C57.8732 50.514 57.9255 50.3922 58.0257 50.2573C58.2697 49.918 58.5007 49.6743 58.7229 49.5177C58.9451 49.3611 59.211 49.2871 59.5291 49.2871C59.7556 49.2871 59.9648 49.3176 60.1478 49.3829C60.3308 49.4481 60.5313 49.5308 60.7448 49.6439C60.9278 49.7309 61.0629 49.7918 61.1588 49.8266C61.2547 49.8614 61.3549 49.8788 61.4682 49.8788C61.6033 49.8788 61.7122 49.8527 61.7994 49.7962C61.8865 49.7396 61.9955 49.6352 62.1305 49.4786C62.2177 49.3785 62.3092 49.3263 62.4007 49.3263C62.5358 49.3263 62.7406 49.4307 63.0151 49.6352C63.1502 49.7396 63.2461 49.8266 63.3027 49.9049C63.3637 49.9832 63.3899 50.0615 63.3899 50.1398C63.3899 50.2573 63.3376 50.3835 63.2374 50.5183C62.9933 50.8707 62.758 51.1274 62.5358 51.2797C62.3092 51.432 62.0303 51.5103 61.6904 51.5103C61.5161 51.5103 61.3549 51.4842 61.2067 51.432L61.2111 51.4276ZM61.9606 58.1144C62.2569 57.6967 62.4051 57.0702 62.4051 56.2393C62.4051 55.4083 62.2569 54.7906 61.9606 54.3729C61.6643 53.9553 61.2067 53.7464 60.5836 53.7464C59.9605 53.7464 59.5029 53.9553 59.2066 54.3729C58.9103 54.7906 58.7621 55.4127 58.7621 56.2393C58.7621 57.0659 58.9103 57.7011 59.2066 58.1144C59.5029 58.532 59.9605 58.7408 60.5836 58.7408C61.2067 58.7408 61.6643 58.532 61.9606 58.1144Z" fill="#BB29BB"/>
<path d="M66.2877 60.1069C66.1962 60.0112 66.1526 59.8633 66.1526 59.6588V52.8241C66.1526 52.6197 66.2005 52.4674 66.2964 52.3717C66.3923 52.2716 66.5491 52.2238 66.7714 52.2238H71.678C71.9003 52.2238 72.0484 52.2673 72.1268 52.3586C72.2053 52.45 72.2445 52.6023 72.2445 52.8111V53.3549C72.2445 53.5681 72.2053 53.7203 72.1268 53.8073C72.0484 53.8987 71.9003 53.9422 71.678 53.9422H68.5449V55.3822H70.6148C70.837 55.3822 70.9852 55.4257 71.0679 55.5171C71.1507 55.6085 71.19 55.7607 71.19 55.9696V56.4873C71.19 56.7004 71.1507 56.8527 71.0679 56.9397C70.9852 57.0311 70.8326 57.0746 70.6148 57.0746H68.5449V58.5277H71.6649C71.8872 58.5277 72.0353 58.5712 72.1138 58.6625C72.1922 58.7539 72.2314 58.9062 72.2314 59.115V59.6588C72.2314 59.8633 72.1922 60.0112 72.1138 60.1026C72.0353 60.1939 71.8872 60.2374 71.6649 60.2374H66.7714C66.5448 60.2374 66.3835 60.1896 66.292 60.0939L66.2877 60.1069Z" fill="#BB29BB"/>
<path d="M74.8895 60.22C74.2969 60.0808 73.8219 59.8894 73.4602 59.637C73.3251 59.55 73.2598 59.4587 73.2598 59.3673C73.2598 59.3064 73.2816 59.2368 73.3295 59.1672L73.909 58.2449C73.9701 58.1492 74.0354 58.1013 74.0964 58.1013C74.1356 58.1013 74.201 58.1274 74.2969 58.184C74.5888 58.3493 74.92 58.4841 75.2904 58.5842C75.6608 58.6886 76.0268 58.7365 76.3885 58.7365C76.7502 58.7365 77.0334 58.6799 77.2121 58.5712C77.3908 58.4624 77.4779 58.284 77.4779 58.0404C77.4779 57.7968 77.382 57.6184 77.1903 57.4835C76.9986 57.3487 76.6369 57.179 76.1096 56.9745C75.3122 56.6743 74.6934 56.3393 74.2489 55.9652C73.8045 55.591 73.5822 55.082 73.5822 54.4382C73.5822 53.6594 73.8611 53.0634 74.4232 52.6544C74.981 52.2455 75.7262 52.041 76.6587 52.041C77.3036 52.041 77.857 52.0976 78.3189 52.2107C78.7808 52.3238 79.173 52.4978 79.4955 52.7371C79.6306 52.8415 79.6959 52.9329 79.6959 53.0199C79.6959 53.0764 79.6741 53.1373 79.6262 53.207L79.0466 54.1293C78.9769 54.225 78.9116 54.2728 78.8593 54.2728C78.8201 54.2728 78.7547 54.2467 78.6588 54.1902C78.2013 53.89 77.6566 53.7421 77.0291 53.7421C76.6892 53.7421 76.4277 53.7986 76.2491 53.9074C76.0661 54.0162 75.9789 54.1989 75.9789 54.4512C75.9789 54.6252 76.0268 54.7644 76.1227 54.8776C76.2186 54.9863 76.3449 55.082 76.5062 55.1647C76.6674 55.2474 76.9201 55.3518 77.2557 55.4779L77.4823 55.5606C78.0662 55.7868 78.5237 56.0087 78.8593 56.2175C79.1948 56.4263 79.4475 56.683 79.6218 56.9832C79.7962 57.2877 79.8833 57.6663 79.8833 58.1231C79.8833 58.8235 79.6219 59.3804 79.0989 59.798C78.576 60.2157 77.8047 60.4245 76.7851 60.4245C76.1227 60.4245 75.4952 60.3549 74.9069 60.22H74.8895Z" fill="#BB29BB"/>
<path d="M86.0624 59.3629C85.2911 58.6495 84.9033 57.6097 84.9033 56.2393C84.9033 54.8689 85.278 53.8204 86.0319 53.1112C86.7857 52.4021 87.8577 52.0497 89.2521 52.0497C89.8578 52.0497 90.4069 52.1106 90.8949 52.2324C91.383 52.3542 91.7926 52.5239 92.1238 52.7458C92.2109 52.8024 92.2545 52.872 92.2545 52.959C92.2545 53.0155 92.2284 53.0982 92.1717 53.207L91.6619 54.0684C91.614 54.1728 91.5529 54.2206 91.4745 54.2206C91.4266 54.2206 91.3481 54.1945 91.2392 54.138C90.7642 53.8769 90.2108 53.7464 89.5702 53.7464C88.8382 53.7464 88.2717 53.9552 87.8751 54.3772C87.4786 54.7992 87.2781 55.417 87.2781 56.2349C87.2781 57.0528 87.4917 57.6749 87.9187 58.1013C88.3458 58.5277 88.9253 58.7408 89.6574 58.7408C90.3023 58.7408 90.8775 58.6103 91.3699 58.3493C91.4789 58.2927 91.5573 58.2666 91.6052 58.2666C91.675 58.2666 91.7403 58.3145 91.7926 58.4102L92.3242 59.3194C92.3722 59.3978 92.394 59.4674 92.394 59.5326C92.394 59.6022 92.346 59.6762 92.2502 59.7458C91.5878 60.2026 90.6117 60.4288 89.3175 60.4288C87.9144 60.4288 86.825 60.0721 86.0537 59.3586L86.0624 59.3629Z" fill="#BB29BB"/>
<path d="M93.8974 60.1156C93.8058 60.0199 93.7623 59.872 93.7623 59.6675V52.8328C93.7623 52.6284 93.8102 52.4761 93.9061 52.3804C94.0019 52.2803 94.1588 52.2325 94.381 52.2325H97.2919C98.3857 52.2325 99.1962 52.4587 99.7147 52.9155C100.233 53.3723 100.495 54.051 100.495 54.9559C100.495 56.0827 100.059 56.8571 99.1962 57.2834L100.368 59.8198C100.399 59.885 100.416 59.9459 100.416 60.0068C100.416 60.0765 100.39 60.1374 100.338 60.1852C100.286 60.2331 100.216 60.2548 100.133 60.2548H98.4772C98.3595 60.2548 98.268 60.2374 98.1983 60.207C98.1329 60.1765 98.0806 60.1156 98.0501 60.0286L97.0697 57.6315H96.1589V59.6632C96.1589 59.8676 96.111 60.0155 96.0151 60.1113C95.9193 60.207 95.758 60.2548 95.5314 60.2548H94.3854C94.1588 60.2548 93.9976 60.207 93.9061 60.1113L93.8974 60.1156ZM97.0261 55.9478C97.7451 55.9478 98.1024 55.6172 98.1024 54.9559C98.1024 54.2946 97.7625 53.9509 97.0871 53.9509H96.1546V55.9478H97.0305H97.0261Z" fill="#BB29BB"/>
<path d="M101.998 60.1156C101.907 60.0199 101.863 59.872 101.863 59.6675V52.8328C101.863 52.6284 101.911 52.4761 102.007 52.3804C102.103 52.2803 102.26 52.2325 102.482 52.2325H103.628C103.854 52.2325 104.02 52.2803 104.112 52.3804C104.207 52.4804 104.255 52.6284 104.255 52.8328V59.6675C104.255 59.872 104.207 60.0199 104.112 60.1156C104.016 60.2113 103.854 60.2592 103.628 60.2592H102.482C102.255 60.2592 102.094 60.2113 102.002 60.1156H101.998Z" fill="#BB29BB"/>
<path d="M105.624 60.046C105.624 59.9851 105.645 59.9024 105.685 59.8111L108.687 52.6327C108.748 52.4848 108.818 52.3804 108.896 52.3195C108.97 52.2586 109.084 52.2325 109.232 52.2325H110.308C110.456 52.2325 110.57 52.2629 110.644 52.3195C110.718 52.3804 110.787 52.4848 110.853 52.6327L113.855 59.8111C113.894 59.9068 113.916 59.9807 113.916 60.0373C113.916 60.1069 113.894 60.1635 113.851 60.2026C113.807 60.2418 113.746 60.2635 113.668 60.2635H111.833C111.724 60.2635 111.637 60.2418 111.572 60.1983C111.506 60.1548 111.458 60.0808 111.419 59.9807L111.005 58.8453H108.521L108.121 59.9807C108.081 60.0852 108.029 60.1548 107.968 60.1983C107.907 60.2418 107.816 60.2635 107.698 60.2635H105.876C105.711 60.2635 105.628 60.1939 105.628 60.0504L105.624 60.046ZM110.482 57.2356L109.759 55.23L109.036 57.2356H110.478H110.482Z" fill="#BB29BB"/>
<path d="M115.864 60.1156C115.768 60.0199 115.72 59.872 115.72 59.6675V53.9552H113.899C113.676 53.9552 113.528 53.9117 113.45 53.8204C113.371 53.729 113.332 53.5811 113.332 53.3766V52.8198C113.332 52.6153 113.371 52.4674 113.45 52.3717C113.528 52.2759 113.676 52.2281 113.899 52.2281H119.943C120.165 52.2281 120.313 52.2759 120.396 52.3717C120.479 52.4674 120.518 52.6153 120.518 52.8198V53.3766C120.518 53.5811 120.474 53.729 120.396 53.8204C120.313 53.9117 120.161 53.9552 119.943 53.9552H118.121V59.6675C118.121 59.872 118.073 60.0199 117.977 60.1156C117.881 60.2113 117.72 60.2592 117.494 60.2592H116.348C116.121 60.2592 115.955 60.2113 115.864 60.1156Z" fill="#BB29BB"/>
<path d="M121.79 60.1156C121.699 60.0199 121.655 59.872 121.655 59.6675V52.8328C121.655 52.6284 121.703 52.4761 121.799 52.3804C121.895 52.2803 122.052 52.2325 122.274 52.2325H123.42C123.647 52.2325 123.812 52.2803 123.904 52.3804C124 52.4804 124.047 52.6284 124.047 52.8328V59.6675C124.047 59.872 124 60.0199 123.904 60.1156C123.808 60.2113 123.647 60.2592 123.42 60.2592H122.274C122.047 60.2592 121.886 60.2113 121.795 60.1156H121.79Z" fill="#BB29BB"/>
<path d="M128.579 60.1722C128.505 60.1156 128.436 60.0155 128.37 59.8633L125.459 52.6718C125.429 52.6022 125.411 52.5283 125.411 52.4456C125.411 52.2977 125.49 52.2194 125.647 52.2194H127.468C127.69 52.2194 127.83 52.3195 127.895 52.5152L129.447 56.9789L130.993 52.5152C131.054 52.3195 131.203 52.2194 131.429 52.2194H133.251C133.408 52.2194 133.486 52.2934 133.486 52.4456C133.486 52.5239 133.469 52.5979 133.438 52.6718L130.54 59.8633C130.479 60.0112 130.405 60.1156 130.327 60.1722C130.248 60.2287 130.135 60.2548 129.982 60.2548H128.906C128.758 60.2548 128.645 60.2287 128.571 60.1722H128.579Z" fill="#BB29BB"/>
<path d="M132.793 60.046C132.793 59.9851 132.815 59.9024 132.854 59.8111L135.857 52.6327C135.918 52.4848 135.987 52.3804 136.066 52.3195C136.14 52.2586 136.253 52.2325 136.401 52.2325H137.478C137.626 52.2325 137.739 52.2629 137.813 52.3195C137.887 52.3804 137.957 52.4848 138.022 52.6327L141.025 59.8111C141.064 59.9068 141.086 59.9807 141.086 60.0373C141.086 60.1069 141.064 60.1635 141.02 60.2026C140.977 60.2418 140.916 60.2635 140.837 60.2635H139.003C138.894 60.2635 138.807 60.2418 138.741 60.1983C138.676 60.1548 138.628 60.0808 138.589 59.9807L138.175 58.8453H135.691L135.29 59.9807C135.251 60.0852 135.199 60.1548 135.138 60.1983C135.077 60.2418 134.985 60.2635 134.867 60.2635H133.046C132.88 60.2635 132.798 60.1939 132.798 60.0504L132.793 60.046ZM137.652 57.2356L136.929 55.23L136.205 57.2356H137.648H137.652Z" fill="#BB29BB"/>
<path d="M143.321 60.2287C142.729 60.0895 142.254 59.8981 141.892 59.6457C141.757 59.5587 141.691 59.4674 141.691 59.376C141.691 59.3151 141.713 59.2455 141.761 59.1759L142.341 58.2536C142.402 58.1579 142.467 58.11 142.528 58.11C142.567 58.11 142.633 58.1361 142.729 58.1927C143.02 58.358 143.352 58.4928 143.722 58.5929C144.092 58.6973 144.458 58.7452 144.82 58.7452C145.182 58.7452 145.465 58.6886 145.644 58.5799C145.822 58.4711 145.91 58.2927 145.91 58.0491C145.91 57.8055 145.814 57.6271 145.622 57.4922C145.43 57.3574 145.069 57.1877 144.541 56.9832C143.744 56.683 143.125 56.348 142.681 55.9739C142.236 55.5997 142.014 55.0907 142.014 54.4469C142.014 53.6681 142.293 53.0721 142.855 52.6631C143.413 52.2542 144.158 52.0497 145.09 52.0497C145.735 52.0497 146.289 52.1063 146.751 52.2194C147.212 52.3325 147.605 52.5065 147.927 52.7458C148.062 52.8502 148.128 52.9416 148.128 53.0286C148.128 53.0851 148.106 53.146 148.058 53.2157L147.478 54.138C147.409 54.2337 147.343 54.2815 147.291 54.2815C147.252 54.2815 147.186 54.2554 147.09 54.1989C146.633 53.8987 146.088 53.7508 145.461 53.7508C145.121 53.7508 144.859 53.8073 144.681 53.9161C144.498 54.0249 144.411 54.2076 144.411 54.4599C144.411 54.6339 144.458 54.7731 144.554 54.8863C144.65 54.995 144.777 55.0907 144.938 55.1734C145.099 55.2561 145.352 55.3605 145.687 55.4866L145.914 55.5693C146.498 55.7955 146.955 56.0174 147.291 56.2262C147.626 56.435 147.879 56.6917 148.053 56.9919C148.228 57.2965 148.315 57.6749 148.315 58.1317C148.315 58.8322 148.053 59.3891 147.531 59.8067C147.008 60.2244 146.236 60.4332 145.217 60.4332C144.554 60.4332 143.927 60.3636 143.339 60.2287H143.321Z" fill="#BB29BB"/>
</g>
<defs>
<clipPath id="clip0_1_299">
<rect width="163" height="63" fill="white"/>
</clipPath>
</defs>
</svg>
