<svg width="288" height="50" viewBox="0 0 288 50" fill="none" xmlns="http://www.w3.org/2000/svg">
<g clip-path="url(#clip0_1_228)">
<path d="M77.47 37.2498C76.3545 37.2498 75.1805 37.1863 74.065 37.128C75.1805 40.5221 78.2137 41.4487 82.7979 41.4487C85.7726 41.4487 88.8695 40.7339 90.8084 40.072C91.4352 39.8602 92.0939 40.2785 92.1629 40.9351L92.7207 46.2035C92.7845 46.8125 92.4392 47.3949 91.8708 47.6173C89.5707 48.5227 85.6664 49.3487 81.4327 49.3487C70.2882 49.3487 63.7863 43.4237 63.7863 33.9828C63.7863 22.9959 70.9097 14.6617 82.8563 14.6617C92.0833 14.6617 96.2319 18.9823 96.2319 24.9073C96.2319 33.4851 88.4286 37.2498 77.47 37.2498ZM77.4062 30.3346C82.3623 30.3346 86.1976 28.6667 86.1976 25.2144C86.1976 23.1176 84.9599 21.9422 82.357 21.9422C78.1446 21.9422 74.9893 25.2144 73.996 30.1493C74.9893 30.2711 76.0995 30.3346 77.4009 30.3346H77.4062Z" fill="#001A70"/>
<path d="M130.149 38.0546C129.692 40.6174 130.553 41.078 133.416 41.1363C133.82 41.1416 134.133 41.4963 134.085 41.8988L133.458 47.3684C133.395 47.9191 133.007 48.3745 132.47 48.528C131.397 48.8404 129.958 48.9834 128.593 48.9834C123.02 48.9834 119.058 46.2671 120.232 39.479L122.149 28.5555C122.829 24.7273 121.034 23.0647 117.751 23.0647C114.962 23.0647 112.55 24.0549 110.569 26.1516L106.925 47.0507C106.813 47.7073 106.24 48.1838 105.57 48.1838H98.6383C97.7831 48.1838 97.1403 47.4161 97.289 46.5795L102.521 16.9914C102.628 16.3878 103.127 15.9271 103.743 15.8689L109.974 15.2812C110.697 15.2123 111.35 15.7206 111.461 16.4355C111.536 16.912 111.584 17.3991 111.621 17.881C114.224 16.0277 117.629 14.6722 122.022 14.6722C130.011 14.6722 133.474 19.6707 131.929 28.4338L130.133 38.0599L130.149 38.0546Z" fill="#001A70"/>
<path d="M151.588 23.2394L149.235 36.5085C148.613 39.9026 150.409 41.078 153.941 41.078C155.806 41.078 157.299 40.8927 158.398 40.6703C158.839 40.5803 159.243 40.9245 159.221 41.3746L158.94 46.8813C158.913 47.4372 158.552 47.9297 158.021 48.1044C156.311 48.6763 153.596 48.9781 150.536 48.9781C143.599 48.9781 137.904 45.9547 139.392 37.684L141.995 23.2394H136.008C135.1 23.2394 134.441 22.3711 134.685 21.4974L136.082 16.5784C136.21 16.1389 136.614 15.8318 137.071 15.8318H143.227L144.831 6.89399C144.943 6.26919 145.469 5.80323 146.106 5.77146L153.511 5.35317C154.175 5.3161 154.696 5.90384 154.584 6.55511L152.953 15.8318H161.15C162.005 15.8318 162.653 16.6049 162.499 17.4468L161.591 22.3975C161.5 22.8847 161.075 23.2394 160.576 23.2394H151.588Z" fill="#001A70"/>
<path d="M194.78 38.1129C194.334 40.6651 195.242 41.0728 197.861 41.131C198.366 41.1416 198.759 41.5811 198.7 42.0841L198.1 47.3525C198.036 47.8979 197.654 48.3586 197.123 48.5121C196.108 48.8087 194.759 48.9834 193.548 48.9834C189.649 48.9834 186.924 47.7497 185.622 45.4676C183.519 47.5643 180.544 49.354 176.087 49.354C168.039 49.354 162.834 43.985 162.834 35.0365C162.834 23.4354 170.324 14.667 183.019 14.667C190.244 14.667 194.69 17.2562 196.899 19.5912C197.494 20.216 197.749 21.0844 197.606 21.9369L194.785 38.1235L194.78 38.1129ZM178.621 41.3852C178.743 41.3852 178.86 41.3852 178.982 41.3799C182.286 41.2369 185.011 38.7271 185.569 35.476L187.598 23.6736C186.546 22.9323 184.937 22.3181 182.642 22.3181C175.954 22.3181 172.735 27.809 172.735 34.1046C172.735 38.6106 174.594 41.3852 178.616 41.3852H178.621Z" fill="#001A70"/>
<path d="M5.39698 10.9076C8.88695 10.9076 11.2295 8.63073 11.2295 5.23668C11.2349 2.05443 9.05694 0 5.68914 0C2.32134 0 0 2.23446 0 5.31081C0 8.65721 2.16729 10.9076 5.39698 10.9076Z" fill="#001A70"/>
<path d="M23.4843 31.4201C22.5813 31.4201 22.3104 32.0925 22.1988 32.3785L22.1882 32.3997C21.0249 35.6878 17.7846 40.9033 14.0449 40.9033C11.0649 40.9033 10.4381 37.8058 10.4381 35.206C10.4381 33.9722 10.5124 31.113 10.5921 28.0896C10.6877 24.3937 10.7993 20.2054 10.7993 17.9763C10.7993 16.4196 9.89625 15.493 8.37702 15.493H2.56571C1.18459 15.493 0.292175 16.4407 0.292175 17.9074V37.1651C0.292175 45.3246 4.56301 50.0053 12.0104 50.0053C20.993 50.0053 26.6981 42.2959 28.8547 35.6931C28.9185 35.4972 29.03 35.116 29.03 34.7771C29.03 33.3527 24.1324 31.4254 23.4843 31.4254V31.4201Z" fill="#001A70"/>
<path d="M60.4504 14.3387C60.1476 13.2903 59.3827 13.1791 59.0693 13.1791C58.06 13.1791 55.8715 13.7139 54.2247 14.2381C50.4001 15.4665 50.4001 16.2343 50.4001 16.6049C50.4001 16.9755 50.4798 17.4309 50.5913 18.0822C50.7879 19.2047 51.0535 20.7402 51.0535 22.6146C51.0535 28.5661 48.9765 34.7718 45.1784 40.1991C43.5742 30.7476 38.7031 20.3484 34.9263 15.8742C34.3898 15.1859 33.9542 14.6987 33.2158 14.6987C32.01 14.6987 29.6249 15.583 27.787 16.4566C25.1097 17.738 23.7499 18.8552 23.7499 19.7871V22.6835C23.7499 25.4368 23.1709 30.0064 21.5454 33.8134L21.5188 33.8928C21.4179 34.2529 21.1736 34.7718 20.977 35.1901C20.6796 35.8149 20.5521 36.1061 20.5521 36.3656C20.5521 36.6515 20.5521 37.3239 23.1496 38.7059C24.0049 39.1613 25.6356 39.9343 26.3103 39.9343C26.9052 39.9343 27.2717 39.299 27.5958 38.7324C27.6329 38.6689 27.6701 38.6053 27.702 38.5524L27.7286 38.5047C29.1734 35.4972 30.2783 30.7371 30.6926 27.1524C33.4018 32.3838 35.0857 38.1658 37.2636 47.1196C37.3698 47.8873 37.7895 48.4327 38.4428 48.6604C39.9833 49.2958 44.5622 49.7141 46.9367 49.7141C47.3829 49.7141 48.0469 49.5817 48.6578 48.9728C54.995 43.0795 61.4172 31.7113 61.4172 21.3862C61.4172 19.6442 61.3163 17.0126 60.4504 14.344V14.3387Z" fill="#001A70"/>
<path d="M210.551 32.2196C209.829 32.0502 209.25 31.8172 208.809 31.5101C208.644 31.4042 208.565 31.293 208.565 31.1818C208.565 31.1077 208.591 31.023 208.65 30.9383L209.356 29.8157C209.43 29.6992 209.51 29.641 209.584 29.641C209.632 29.641 209.712 29.6728 209.829 29.7416C210.185 29.9428 210.588 30.107 211.04 30.2287C211.491 30.3558 211.938 30.4141 212.379 30.4141C212.819 30.4141 213.165 30.3452 213.383 30.2129C213.6 30.0805 213.707 29.8634 213.707 29.5669C213.707 29.2704 213.59 29.0533 213.356 28.8891C213.122 28.725 212.681 28.5185 212.039 28.2696C211.067 27.9043 210.312 27.4966 209.77 27.0412C209.229 26.5858 208.958 25.9663 208.958 25.1827C208.958 24.2349 209.298 23.5095 209.983 23.0118C210.663 22.514 211.571 22.2652 212.708 22.2652C213.494 22.2652 214.169 22.334 214.732 22.4717C215.295 22.6093 215.773 22.8211 216.166 23.1124C216.331 23.2394 216.41 23.3506 216.41 23.4565C216.41 23.5254 216.384 23.5995 216.325 23.6842L215.619 24.8067C215.534 24.9232 215.454 24.9815 215.39 24.9815C215.343 24.9815 215.263 24.9497 215.146 24.8809C214.588 24.5155 213.924 24.3355 213.159 24.3355C212.745 24.3355 212.426 24.4043 212.209 24.5367C211.985 24.6691 211.879 24.8915 211.879 25.1986C211.879 25.4104 211.938 25.5798 212.055 25.7175C212.171 25.8498 212.325 25.9663 212.522 26.0669C212.719 26.1675 213.027 26.2946 213.436 26.4482L213.712 26.5488C214.424 26.8241 214.981 27.0941 215.39 27.3483C215.8 27.6025 216.108 27.9149 216.32 28.2802C216.533 28.6509 216.639 29.1115 216.639 29.6675C216.639 30.52 216.32 31.1977 215.683 31.706C215.045 32.2143 214.105 32.4685 212.862 32.4685C212.055 32.4685 211.29 32.3838 210.573 32.2196H210.551Z" fill="#BB29BB"/>
<path d="M219.311 31.1395C218.44 30.2552 218.004 28.995 218.004 27.3695C218.004 25.7439 218.44 24.4838 219.311 23.5995C220.182 22.7153 221.451 22.2705 223.125 22.2705C224.798 22.2705 226.068 22.7153 226.939 23.5995C227.81 24.4838 228.245 25.7439 228.245 27.3695C228.245 28.995 227.81 30.2552 226.939 31.1395C226.068 32.0237 224.798 32.4685 223.125 32.4685C221.451 32.4685 220.182 32.0237 219.311 31.1395ZM224.803 29.6516C225.165 29.1433 225.345 28.3808 225.345 27.3695C225.345 26.3582 225.165 25.6063 224.803 25.098C224.442 24.5897 223.884 24.3355 223.125 24.3355C222.365 24.3355 221.807 24.5897 221.446 25.098C221.085 25.6063 220.904 26.3635 220.904 27.3695C220.904 28.3755 221.085 29.1486 221.446 29.6516C221.807 30.1599 222.365 30.4141 223.125 30.4141C223.884 30.4141 224.442 30.1599 224.803 29.6516Z" fill="#BB29BB"/>
<path d="M230.078 32.082C229.967 31.9655 229.913 31.7854 229.913 31.5366V23.2182C229.913 22.9694 229.972 22.7841 230.089 22.6676C230.206 22.5458 230.397 22.4875 230.668 22.4875H232.065C232.341 22.4875 232.543 22.5458 232.654 22.6676C232.771 22.7894 232.83 22.9694 232.83 23.2182V30.1705H236.548C236.819 30.1705 237 30.2234 237.095 30.3346C237.191 30.4458 237.239 30.6311 237.239 30.8853V31.5472C237.239 31.796 237.191 31.9761 237.095 32.0873C237 32.1984 236.814 32.2514 236.548 32.2514H230.668C230.391 32.2514 230.195 32.1932 230.083 32.0767L230.078 32.082Z" fill="#BB29BB"/>
<path d="M240.24 32.0237C239.544 31.7272 239.002 31.2983 238.62 30.7318C238.237 30.1652 238.041 29.498 238.041 28.7197V23.2182C238.041 22.9694 238.099 22.7841 238.216 22.6676C238.333 22.5458 238.524 22.4875 238.795 22.4875H240.192C240.468 22.4875 240.67 22.5458 240.782 22.6676C240.899 22.7894 240.957 22.9694 240.957 23.2182V28.762C240.957 29.2968 241.106 29.7098 241.409 29.9905C241.711 30.2711 242.126 30.4141 242.657 30.4141C243.188 30.4141 243.597 30.2711 243.895 29.9905C244.192 29.7098 244.341 29.2968 244.341 28.762V23.2182C244.341 22.9694 244.399 22.7841 244.516 22.6676C244.633 22.5458 244.824 22.4875 245.095 22.4875H246.492C246.768 22.4875 246.97 22.5458 247.092 22.6676C247.215 22.7894 247.273 22.9694 247.273 23.2182V28.7197C247.273 29.498 247.076 30.1652 246.689 30.7318C246.301 31.2983 245.759 31.7272 245.069 32.0237C244.378 32.3202 243.576 32.4685 242.662 32.4685C241.749 32.4685 240.946 32.3202 240.245 32.0237H240.24Z" fill="#BB29BB"/>
<path d="M258.003 31.3777C258.003 31.4625 257.945 31.5525 257.828 31.6372C257.185 32.0767 256.293 32.3467 255.161 32.442C255.161 32.4897 255.151 32.5267 255.135 32.5585L254.805 33.2786C255.129 33.3369 255.374 33.4533 255.528 33.6228C255.682 33.7975 255.756 34.0358 255.756 34.3429C255.756 34.7082 255.597 35.0101 255.278 35.2483C254.959 35.4866 254.492 35.6084 253.865 35.6084C253.605 35.6084 253.334 35.5819 253.058 35.5343C252.776 35.4866 252.569 35.4231 252.426 35.3489C252.341 35.3013 252.288 35.2642 252.266 35.2324C252.245 35.206 252.25 35.153 252.282 35.0895L252.585 34.327C252.612 34.2582 252.654 34.2264 252.702 34.2264C252.739 34.2264 252.787 34.2423 252.845 34.2688C253.037 34.3641 253.244 34.4117 253.467 34.4117C253.786 34.4117 253.945 34.3111 253.945 34.1099C253.945 33.967 253.886 33.8664 253.77 33.8134C253.653 33.7605 253.461 33.734 253.191 33.734H252.946C252.867 33.734 252.819 33.7128 252.792 33.6704C252.766 33.6281 252.771 33.5698 252.797 33.5063L253.185 32.5267C253.207 32.4685 253.222 32.4314 253.244 32.4102C251.841 32.2461 250.758 31.7378 249.998 30.8853C249.238 30.0328 248.861 28.8574 248.861 27.3642C248.861 25.6857 249.318 24.4202 250.237 23.5571C251.156 22.6941 252.463 22.2652 254.163 22.2652C254.901 22.2652 255.57 22.3393 256.165 22.4876C256.76 22.6358 257.26 22.8423 257.663 23.1124C257.77 23.1812 257.823 23.2659 257.823 23.3718C257.823 23.4406 257.791 23.5412 257.722 23.6736L257.1 24.722C257.042 24.8491 256.967 24.9073 256.872 24.9073C256.813 24.9073 256.718 24.8756 256.585 24.8067C256.006 24.489 255.331 24.3302 254.55 24.3302C253.658 24.3302 252.967 24.5843 252.484 25.098C252.001 25.6116 251.756 26.3634 251.756 27.3589C251.756 28.3543 252.017 29.1115 252.537 29.6304C253.058 30.1493 253.764 30.4088 254.657 30.4088C255.443 30.4088 256.144 30.2499 256.744 29.9322C256.877 29.8634 256.973 29.8316 257.031 29.8316C257.116 29.8316 257.196 29.8899 257.26 30.0064L257.908 31.113C257.966 31.2083 257.993 31.293 257.993 31.3724L258.003 31.3777Z" fill="#BB29BB"/>
<path d="M260.68 31.1395C259.809 30.2552 259.374 28.995 259.374 27.3695C259.374 25.7439 259.809 24.4837 260.68 23.5995C261.552 22.7152 262.821 22.2705 264.494 22.2705C266.168 22.2705 267.437 22.7152 268.308 23.5995C269.18 24.4837 269.615 25.7439 269.615 27.3695C269.615 28.995 269.18 30.2552 268.308 31.1395C267.437 32.0237 266.168 32.4685 264.494 32.4685C262.821 32.4685 261.552 32.0237 260.68 31.1395ZM265.259 21.5133C265.079 21.4497 264.85 21.3544 264.579 21.2168C264.356 21.1109 264.17 21.0314 264.016 20.9732C263.862 20.915 263.708 20.8885 263.554 20.8885C263.379 20.8885 263.241 20.9202 263.129 20.9891C263.018 21.0579 262.885 21.1744 262.731 21.3491C262.635 21.4656 262.524 21.5239 262.402 21.5239C262.237 21.5239 261.987 21.3968 261.653 21.1373C261.488 21.0208 261.371 20.915 261.297 20.8196C261.222 20.7243 261.19 20.629 261.19 20.5337C261.19 20.4013 261.254 20.2531 261.376 20.0889C261.674 19.6759 261.955 19.3794 262.226 19.1888C262.497 18.9982 262.821 18.9082 263.209 18.9082C263.485 18.9082 263.74 18.9452 263.963 19.0247C264.186 19.1041 264.431 19.2047 264.691 19.3424C264.914 19.4483 265.079 19.5224 265.196 19.5647C265.313 19.6071 265.435 19.6283 265.573 19.6283C265.737 19.6283 265.87 19.5965 265.977 19.5277C266.083 19.4588 266.216 19.3318 266.38 19.1412C266.486 19.0194 266.598 18.9558 266.71 18.9558C266.874 18.9558 267.124 19.0829 267.459 19.3318C267.623 19.4588 267.74 19.5647 267.809 19.6601C267.884 19.7554 267.915 19.8507 267.915 19.946C267.915 20.0889 267.852 20.2425 267.729 20.4066C267.432 20.8355 267.145 21.1479 266.874 21.3333C266.598 21.5186 266.258 21.6139 265.844 21.6139C265.631 21.6139 265.435 21.5821 265.254 21.5186L265.259 21.5133ZM266.173 29.6516C266.534 29.1433 266.715 28.3808 266.715 27.3695C266.715 26.3581 266.534 25.6063 266.173 25.0979C265.812 24.5896 265.254 24.3355 264.494 24.3355C263.735 24.3355 263.177 24.5896 262.816 25.0979C262.455 25.6063 262.274 26.3634 262.274 27.3695C262.274 28.3755 262.455 29.1486 262.816 29.6516C263.177 30.1599 263.735 30.414 264.494 30.414C265.254 30.414 265.812 30.1599 266.173 29.6516Z" fill="#BB29BB"/>
<path d="M271.448 32.082C271.336 31.9655 271.283 31.7854 271.283 31.5366V23.2182C271.283 22.9694 271.342 22.7841 271.458 22.6676C271.575 22.5458 271.767 22.4875 272.037 22.4875H278.019C278.29 22.4875 278.47 22.5405 278.566 22.6517C278.662 22.7629 278.709 22.9482 278.709 23.2024V23.8642C278.709 24.1237 278.662 24.309 278.566 24.4149C278.47 24.5261 278.29 24.579 278.019 24.579H274.199V26.3317H276.723C276.994 26.3317 277.174 26.3846 277.275 26.4958C277.376 26.607 277.424 26.7923 277.424 27.0465V27.6766C277.424 27.936 277.376 28.1214 277.275 28.2273C277.174 28.3384 276.988 28.3914 276.723 28.3914H274.199V30.1599H278.003C278.274 30.1599 278.454 30.2128 278.55 30.324C278.646 30.4352 278.693 30.6206 278.693 30.8747V31.5366C278.693 31.7854 278.646 31.9655 278.55 32.0767C278.454 32.1879 278.274 32.2408 278.003 32.2408H272.037C271.761 32.2408 271.565 32.1826 271.453 32.0661L271.448 32.082Z" fill="#BB29BB"/>
<path d="M281.934 32.2196C281.211 32.0502 280.632 31.8172 280.191 31.5101C280.027 31.4042 279.947 31.293 279.947 31.1818C279.947 31.1077 279.974 31.023 280.032 30.9383L280.739 29.8157C280.813 29.6992 280.893 29.641 280.967 29.641C281.015 29.641 281.094 29.6728 281.211 29.7416C281.567 29.9428 281.971 30.107 282.422 30.2287C282.874 30.3558 283.32 30.4141 283.761 30.4141C284.202 30.4141 284.547 30.3452 284.765 30.2129C284.983 30.0805 285.089 29.8634 285.089 29.5669C285.089 29.2704 284.972 29.0533 284.738 28.8891C284.505 28.725 284.064 28.5185 283.421 28.2696C282.449 27.9043 281.695 27.4966 281.153 27.0412C280.611 26.5858 280.34 25.9663 280.34 25.1827C280.34 24.2349 280.68 23.5095 281.365 23.0118C282.045 22.514 282.954 22.2652 284.09 22.2652C284.877 22.2652 285.551 22.334 286.114 22.4717C286.677 22.6093 287.155 22.8211 287.549 23.1124C287.713 23.2394 287.793 23.3506 287.793 23.4565C287.793 23.5254 287.766 23.5995 287.708 23.6842L287.001 24.8067C286.916 24.9232 286.837 24.9815 286.773 24.9815C286.725 24.9815 286.645 24.9497 286.529 24.8809C285.971 24.5155 285.307 24.3355 284.542 24.3355C284.128 24.3355 283.809 24.4043 283.591 24.5367C283.368 24.6691 283.262 24.8915 283.262 25.1986C283.262 25.4104 283.32 25.5798 283.437 25.7175C283.554 25.8498 283.708 25.9663 283.904 26.0669C284.101 26.1675 284.409 26.2946 284.818 26.4482L285.094 26.5488C285.806 26.8241 286.364 27.0941 286.773 27.3483C287.182 27.6025 287.49 27.9149 287.703 28.2802C287.915 28.6509 288.021 29.1115 288.021 29.6675C288.021 30.52 287.703 31.1977 287.065 31.706C286.428 32.2143 285.487 32.4685 284.244 32.4685C283.437 32.4685 282.672 32.3838 281.955 32.2196H281.934Z" fill="#BB29BB"/>
<path d="M209.978 46.9766C209.037 46.1082 208.565 44.8428 208.565 43.1748C208.565 41.5069 209.021 40.2309 209.94 39.3678C210.859 38.5047 212.166 38.0758 213.866 38.0758C214.604 38.0758 215.274 38.15 215.869 38.2982C216.463 38.4465 216.963 38.653 217.367 38.923C217.473 38.9919 217.526 39.0766 217.526 39.1825C217.526 39.2513 217.494 39.3519 217.425 39.4843L216.803 40.5327C216.745 40.6598 216.671 40.718 216.575 40.718C216.517 40.718 216.421 40.6862 216.288 40.6174C215.709 40.2997 215.035 40.1409 214.254 40.1409C213.361 40.1409 212.671 40.395 212.187 40.9086C211.704 41.4222 211.46 42.1741 211.46 43.1696C211.46 44.165 211.72 44.9222 212.24 45.4411C212.761 45.96 213.468 46.2194 214.36 46.2194C215.146 46.2194 215.847 46.0606 216.448 45.7429C216.58 45.6741 216.676 45.6423 216.734 45.6423C216.819 45.6423 216.899 45.7005 216.963 45.817L217.611 46.9237C217.669 47.019 217.696 47.1037 217.696 47.1831C217.696 47.2678 217.637 47.3578 217.521 47.4426C216.713 47.9985 215.523 48.2739 213.946 48.2739C212.235 48.2739 210.907 47.8397 209.967 46.9713L209.978 46.9766Z" fill="#BB29BB"/>
<path d="M219.523 47.8873C219.412 47.7708 219.359 47.5908 219.359 47.3419V39.0236C219.359 38.7747 219.417 38.5894 219.534 38.4729C219.651 38.3512 219.842 38.2929 220.113 38.2929H223.661C224.995 38.2929 225.983 38.5682 226.615 39.1242C227.247 39.6802 227.566 40.5062 227.566 41.6075C227.566 42.9789 227.034 43.9214 225.983 44.4403L227.411 47.5273C227.449 47.6067 227.47 47.6808 227.47 47.7549C227.47 47.8397 227.438 47.9138 227.374 47.972C227.311 48.0303 227.226 48.0568 227.125 48.0568H225.106C224.963 48.0568 224.851 48.0356 224.766 47.9985C224.686 47.9614 224.623 47.8873 224.586 47.7814L223.39 44.8639H222.28V47.3366C222.28 47.5855 222.222 47.7655 222.105 47.882C221.988 47.9985 221.791 48.0568 221.515 48.0568H220.118C219.842 48.0568 219.645 47.9985 219.534 47.882L219.523 47.8873ZM223.337 42.8148C224.214 42.8148 224.649 42.4124 224.649 41.6075C224.649 40.8027 224.235 40.3844 223.412 40.3844H222.275V42.8148H223.343H223.337Z" fill="#BB29BB"/>
<path d="M229.398 47.8873C229.287 47.7708 229.233 47.5908 229.233 47.3419V39.0236C229.233 38.7747 229.292 38.5894 229.409 38.4729C229.526 38.3512 229.717 38.2929 229.988 38.2929H231.385C231.661 38.2929 231.863 38.3512 231.974 38.4729C232.091 38.5947 232.15 38.7747 232.15 39.0236V47.3419C232.15 47.5908 232.091 47.7708 231.974 47.8873C231.858 48.0038 231.661 48.062 231.385 48.062H229.988C229.712 48.062 229.515 48.0038 229.403 47.8873H229.398Z" fill="#BB29BB"/>
<path d="M233.818 47.8026C233.818 47.7285 233.844 47.6279 233.892 47.5167L237.552 38.78C237.626 38.6 237.711 38.4729 237.807 38.3988C237.897 38.3247 238.035 38.2929 238.216 38.2929H239.528C239.709 38.2929 239.847 38.33 239.937 38.3988C240.027 38.4729 240.112 38.6 240.192 38.78L243.852 47.5167C243.9 47.6332 243.926 47.7232 243.926 47.792C243.926 47.8767 243.9 47.9456 243.847 47.9932C243.794 48.0409 243.719 48.0673 243.624 48.0673H241.387C241.255 48.0673 241.148 48.0409 241.069 47.9879C240.989 47.935 240.93 47.845 240.883 47.7232L240.378 46.3412H237.35L236.862 47.7232C236.814 47.8503 236.75 47.935 236.676 47.9879C236.601 48.0409 236.49 48.0673 236.346 48.0673H234.126C233.924 48.0673 233.823 47.9826 233.823 47.8079L233.818 47.8026ZM239.741 44.3821L238.859 41.9411L237.977 44.3821H239.735H239.741Z" fill="#BB29BB"/>
<path d="M246.301 47.8873C246.184 47.7708 246.126 47.5908 246.126 47.342V40.3897H243.905C243.634 40.3897 243.454 40.3368 243.358 40.2256C243.262 40.1144 243.215 39.9344 243.215 39.6855V39.0077C243.215 38.7589 243.262 38.5789 243.358 38.4624C243.454 38.3459 243.634 38.2876 243.905 38.2876H251.273C251.544 38.2876 251.724 38.3459 251.825 38.4624C251.926 38.5789 251.974 38.7589 251.974 39.0077V39.6855C251.974 39.9344 251.921 40.1144 251.825 40.2256C251.724 40.3368 251.539 40.3897 251.273 40.3897H249.053V47.342C249.053 47.5908 248.994 47.7708 248.877 47.8873C248.76 48.0038 248.564 48.0621 248.288 48.0621H246.891C246.614 48.0621 246.412 48.0038 246.301 47.8873Z" fill="#BB29BB"/>
<path d="M253.531 47.8873C253.419 47.7708 253.366 47.5908 253.366 47.3419V39.0236C253.366 38.7747 253.424 38.5894 253.541 38.4729C253.658 38.3512 253.849 38.2929 254.12 38.2929H255.517C255.793 38.2929 255.995 38.3512 256.107 38.4729C256.224 38.5947 256.282 38.7747 256.282 39.0236V47.3419C256.282 47.5908 256.224 47.7708 256.107 47.8873C255.99 48.0038 255.793 48.062 255.517 48.062H254.12C253.844 48.062 253.647 48.0038 253.536 47.8873H253.531Z" fill="#BB29BB"/>
<path d="M261.801 47.9614C261.711 47.8926 261.626 47.7708 261.546 47.5855L257.998 38.833C257.961 38.7483 257.939 38.6583 257.939 38.5577C257.939 38.3776 258.035 38.2823 258.226 38.2823H260.447C260.718 38.2823 260.888 38.4041 260.967 38.6424L262.858 44.075L264.744 38.6424C264.818 38.4041 264.999 38.2823 265.275 38.2823H267.496C267.687 38.2823 267.783 38.3723 267.783 38.5577C267.783 38.653 267.761 38.743 267.724 38.833L264.192 47.5855C264.117 47.7655 264.027 47.8926 263.931 47.9614C263.836 48.0303 263.698 48.062 263.512 48.062H262.2C262.019 48.062 261.881 48.0303 261.791 47.9614H261.801Z" fill="#BB29BB"/>
<path d="M266.943 47.8026C266.943 47.7285 266.97 47.6279 267.018 47.5167L270.678 38.78C270.752 38.6 270.837 38.4729 270.933 38.3988C271.023 38.3247 271.161 38.2929 271.342 38.2929H272.654C272.834 38.2929 272.972 38.33 273.063 38.3988C273.153 38.4729 273.238 38.6 273.318 38.78L276.978 47.5167C277.025 47.6332 277.052 47.7232 277.052 47.792C277.052 47.8767 277.025 47.9456 276.972 47.9932C276.919 48.0409 276.845 48.0673 276.749 48.0673H274.513C274.38 48.0673 274.274 48.0409 274.194 47.9879C274.114 47.935 274.056 47.845 274.008 47.7232L273.504 46.3412H270.476L269.987 47.7232C269.939 47.8503 269.876 47.935 269.801 47.9879C269.727 48.0409 269.615 48.0673 269.472 48.0673H267.251C267.05 48.0673 266.949 47.9826 266.949 47.8079L266.943 47.8026ZM272.866 44.3821L271.984 41.9411L271.103 44.3821H272.861H272.866Z" fill="#BB29BB"/>
<path d="M279.772 48.025C279.049 47.8555 278.47 47.6226 278.029 47.3155C277.865 47.2096 277.785 47.0984 277.785 46.9872C277.785 46.9131 277.812 46.8283 277.87 46.7436L278.577 45.6211C278.651 45.5046 278.731 45.4464 278.805 45.4464C278.853 45.4464 278.932 45.4781 279.049 45.547C279.405 45.7482 279.809 45.9123 280.26 46.0341C280.712 46.1612 281.158 46.2194 281.599 46.2194C282.04 46.2194 282.385 46.1506 282.603 46.0182C282.821 45.8858 282.927 45.6687 282.927 45.3722C282.927 45.0757 282.81 44.8586 282.576 44.6945C282.343 44.5303 281.902 44.3238 281.259 44.075C280.287 43.7096 279.533 43.3019 278.991 42.8465C278.449 42.3912 278.178 41.7717 278.178 40.988C278.178 40.0402 278.518 39.3148 279.203 38.8171C279.883 38.3194 280.792 38.0705 281.928 38.0705C282.715 38.0705 283.389 38.1394 283.952 38.277C284.515 38.4147 284.993 38.6265 285.387 38.9177C285.551 39.0448 285.631 39.156 285.631 39.2619C285.631 39.3307 285.604 39.4048 285.546 39.4896L284.839 40.6121C284.754 40.7286 284.675 40.7868 284.611 40.7868C284.563 40.7868 284.483 40.7551 284.367 40.6862C283.809 40.3209 283.145 40.1408 282.38 40.1408C281.966 40.1408 281.647 40.2097 281.429 40.3421C281.206 40.4744 281.1 40.6968 281.1 41.0039C281.1 41.2157 281.158 41.3851 281.275 41.5228C281.392 41.6552 281.546 41.7717 281.743 41.8723C281.939 41.9729 282.247 42.1 282.656 42.2535L282.932 42.3541C283.644 42.6295 284.202 42.8995 284.611 43.1537C285.02 43.4078 285.328 43.7202 285.541 44.0856C285.753 44.4562 285.859 44.9169 285.859 45.4728C285.859 46.3253 285.541 47.0031 284.903 47.5114C284.266 48.0197 283.325 48.2738 282.082 48.2738C281.275 48.2738 280.51 48.1891 279.793 48.025H279.772Z" fill="#BB29BB"/>
</g>
<defs>
<clipPath id="clip0_1_228">
<rect width="288" height="50" fill="white"/>
</clipPath>
</defs>
</svg>
