<svg width="48" height="48" viewBox="0 0 48 48" fill="none" xmlns="http://www.w3.org/2000/svg">
<rect width="48" height="48" rx="8" fill="#E1E000"/>
<path d="M36 24.0735C36 17.4045 30.627 11.9985 24 11.9985C17.37 12 11.997 17.4045 11.997 24.075C11.997 30.1005 16.386 35.0955 22.122 36.0015V27.564H19.077V24.075H22.125V21.4125C22.125 18.387 23.9175 16.716 26.658 16.716C27.972 16.716 29.3445 16.9515 29.3445 16.9515V19.9215H27.831C26.3415 19.9215 25.8765 20.853 25.8765 21.8085V24.0735H29.2035L28.6725 27.5625H25.875V36C31.611 35.094 36 30.099 36 24.0735Z" fill="#001A70"/>
</svg>
