<svg width="48" height="48" viewBox="0 0 48 48" fill="none" xmlns="http://www.w3.org/2000/svg">
<rect width="48" height="48" rx="8" fill="#E1E000"/>
<path d="M24 12C20.7435 12 20.334 12.015 19.0545 12.072C17.775 12.132 16.9035 12.333 16.14 12.63C15.3391 12.9312 14.6137 13.4037 14.0145 14.0145C13.4041 14.614 12.9317 15.3394 12.63 16.14C12.333 16.902 12.1305 17.775 12.072 19.05C12.015 20.3325 12 20.7405 12 24.0015C12 27.2595 12.015 27.6675 12.072 28.947C12.132 30.225 12.333 31.0965 12.63 31.86C12.9375 32.649 13.347 33.318 14.0145 33.9855C14.6805 34.653 15.3495 35.064 16.1385 35.37C16.9035 35.667 17.7735 35.8695 19.0515 35.928C20.3325 35.985 20.7405 36 24 36C27.2595 36 27.666 35.985 28.947 35.928C30.2235 35.868 31.098 35.667 31.8615 35.37C32.6618 35.0686 33.3867 34.5961 33.9855 33.9855C34.653 33.318 35.0625 32.649 35.37 31.86C35.6655 31.0965 35.868 30.225 35.928 28.947C35.985 27.6675 36 27.2595 36 24C36 20.7405 35.985 20.3325 35.928 19.0515C35.868 17.775 35.6655 16.902 35.37 16.14C35.0684 15.3393 34.5959 14.614 33.9855 14.0145C33.3864 13.4035 32.661 12.931 31.86 12.63C31.095 12.333 30.222 12.1305 28.9455 12.072C27.6645 12.015 27.258 12 23.997 12H24.0015H24ZM22.9245 14.163H24.0015C27.2055 14.163 27.585 14.1735 28.8495 14.232C30.0195 14.2845 30.6555 14.481 31.0785 14.6445C31.638 14.862 32.0385 15.123 32.4585 15.543C32.8785 15.963 33.138 16.362 33.3555 16.923C33.5205 17.3445 33.7155 17.9805 33.768 19.1505C33.8265 20.415 33.8385 20.7945 33.8385 23.997C33.8385 27.1995 33.8265 27.5805 33.768 28.845C33.7155 30.015 33.519 30.6495 33.3555 31.0725C33.1631 31.5935 32.856 32.0647 32.457 32.451C32.037 32.871 31.638 33.1305 31.077 33.348C30.657 33.513 30.021 33.708 28.8495 33.762C27.585 33.819 27.2055 33.8325 24.0015 33.8325C20.7975 33.8325 20.4165 33.819 19.152 33.762C17.982 33.708 17.3475 33.513 16.9245 33.348C16.4032 33.1559 15.9317 32.8494 15.5445 32.451C15.1451 32.0641 14.8376 31.5925 14.6445 31.071C14.481 30.6495 14.2845 30.0135 14.232 28.8435C14.175 27.579 14.163 27.1995 14.163 23.994C14.163 20.79 14.175 20.412 14.232 19.1475C14.286 17.9775 14.481 17.3415 14.646 16.9185C14.8635 16.359 15.1245 15.9585 15.5445 15.5385C15.9645 15.1185 16.3635 14.859 16.9245 14.6415C17.3475 14.4765 17.982 14.2815 19.152 14.2275C20.259 14.1765 20.688 14.1615 22.9245 14.16V14.163ZM30.4065 16.155C30.2174 16.155 30.0301 16.1922 29.8554 16.2646C29.6807 16.337 29.522 16.443 29.3883 16.5768C29.2545 16.7105 29.1485 16.8692 29.0761 17.0439C29.0037 17.2186 28.9665 17.4059 28.9665 17.595C28.9665 17.7841 29.0037 17.9714 29.0761 18.1461C29.1485 18.3208 29.2545 18.4795 29.3883 18.6132C29.522 18.747 29.6807 18.853 29.8554 18.9254C30.0301 18.9978 30.2174 19.035 30.4065 19.035C30.7884 19.035 31.1547 18.8833 31.4247 18.6132C31.6948 18.3432 31.8465 17.9769 31.8465 17.595C31.8465 17.2131 31.6948 16.8468 31.4247 16.5768C31.1547 16.3067 30.7884 16.155 30.4065 16.155ZM24.0015 17.838C23.1841 17.8252 22.3723 17.9752 21.6135 18.2792C20.8546 18.5832 20.1638 19.0351 19.5812 19.6086C18.9987 20.1822 18.536 20.8659 18.2203 21.6199C17.9045 22.3739 17.7419 23.1833 17.7419 24.0007C17.7419 24.8182 17.9045 25.6276 18.2203 26.3816C18.536 27.1356 18.9987 27.8193 19.5812 28.3929C20.1638 28.9664 20.8546 29.4183 21.6135 29.7223C22.3723 30.0263 23.1841 30.1763 24.0015 30.1635C25.6193 30.1383 27.1623 29.4779 28.2975 28.3249C29.4326 27.1719 30.0689 25.6188 30.0689 24.0007C30.0689 22.3827 29.4326 20.8296 28.2975 19.6766C27.1623 18.5236 25.6193 17.8632 24.0015 17.838ZM24.0015 19.9995C25.0625 19.9995 26.08 20.421 26.8303 21.1712C27.5805 21.9215 28.002 22.939 28.002 24C28.002 25.061 27.5805 26.0785 26.8303 26.8288C26.08 27.579 25.0625 28.0005 24.0015 28.0005C22.9405 28.0005 21.923 27.579 21.1727 26.8288C20.4225 26.0785 20.001 25.061 20.001 24C20.001 22.939 20.4225 21.9215 21.1727 21.1712C21.923 20.421 22.9405 19.9995 24.0015 19.9995Z" fill="#001A70"/>
</svg>
