<svg width="48" height="48" viewBox="0 0 48 48" fill="none" xmlns="http://www.w3.org/2000/svg">
<rect width="48" height="48" rx="8" fill="#E1E000"/>
<path d="M24 12C21.202 11.9982 18.4914 12.9742 16.3368 14.7592C14.1822 16.5442 12.7191 19.026 12.2004 21.7755C11.6817 24.5249 12.1401 27.3692 13.4963 29.8165C14.8525 32.2638 17.0212 34.1603 19.6275 35.178C19.5225 34.2285 19.4265 32.769 19.668 31.7325C19.887 30.795 21.075 25.767 21.075 25.767C21.075 25.767 20.7165 25.0485 20.7165 23.9865C20.7165 22.317 21.684 21.072 22.8885 21.072C23.9115 21.072 24.4065 21.84 24.4065 22.7625C24.4065 23.7915 23.751 25.3305 23.412 26.757C23.13 27.951 24.012 28.926 25.1895 28.926C27.3225 28.926 28.962 26.676 28.962 23.43C28.962 20.5575 26.8965 18.549 23.949 18.549C20.535 18.549 18.531 21.1095 18.531 23.7555C18.531 24.7875 18.9285 25.893 19.4235 26.4945C19.4661 26.5398 19.4963 26.5955 19.511 26.6559C19.5257 26.7164 19.5245 26.7796 19.5075 26.8395C19.416 27.2175 19.2135 28.0335 19.1745 28.2C19.122 28.419 19.0005 28.4655 18.7725 28.3605C17.2725 27.663 16.3365 25.4715 16.3365 23.7105C16.3365 19.926 19.0875 16.4505 24.2655 16.4505C28.428 16.4505 31.6635 19.416 31.6635 23.3805C31.6635 27.516 29.055 30.8445 25.437 30.8445C24.2205 30.8445 23.0775 30.213 22.686 29.466L21.939 32.319C21.6675 33.3615 20.9355 34.668 20.4465 35.4645C22.0965 35.9747 23.8371 36.1227 25.5495 35.8984C27.2619 35.6741 28.9057 35.0829 30.3687 34.1651C31.8316 33.2472 33.0792 32.0244 34.0262 30.5802C34.9732 29.136 35.5974 27.5044 35.856 25.7968C36.1146 24.0893 36.0015 22.346 35.5246 20.6861C35.0477 19.0263 34.2181 17.4889 33.0925 16.1791C31.9669 14.8692 30.5719 13.8178 29.0027 13.0965C27.4334 12.3753 25.727 12.0013 24 12Z" fill="#001A70"/>
</svg>
