<svg width="48" height="48" viewBox="0 0 48 48" fill="none" xmlns="http://www.w3.org/2000/svg">
<rect width="48" height="48" rx="8" fill="#E1E000"/>
<path d="M25.5 12H28.47C28.686 13.0725 29.28 14.4255 30.3225 15.768C31.3425 17.0835 32.6955 18 34.5 18V21C31.8705 21 29.895 19.779 28.5 18.2565V28.5C28.5 29.9834 28.0601 31.4334 27.236 32.6668C26.4119 33.9001 25.2406 34.8614 23.8701 35.4291C22.4997 35.9968 20.9917 36.1453 19.5368 35.8559C18.082 35.5665 16.7456 34.8522 15.6967 33.8033C14.6478 32.7544 13.9335 31.418 13.6441 29.9632C13.3547 28.5083 13.5032 27.0003 14.0709 25.6299C14.6386 24.2594 15.5999 23.0881 16.8332 22.264C18.0666 21.4399 19.5166 21 21 21V24C20.11 24 19.24 24.2639 18.4999 24.7584C17.7599 25.2529 17.1831 25.9557 16.8425 26.7779C16.502 27.6002 16.4128 28.505 16.5865 29.3779C16.7601 30.2508 17.1887 31.0526 17.818 31.682C18.4474 32.3113 19.2492 32.7399 20.1221 32.9135C20.995 33.0872 21.8998 32.9981 22.7221 32.6575C23.5443 32.3169 24.2472 31.7401 24.7416 31.0001C25.2361 30.26 25.5 29.39 25.5 28.5V12Z" fill="#001A70"/>
</svg>
