<svg width="48" height="48" viewBox="0 0 48 48" fill="none" xmlns="http://www.w3.org/2000/svg">
<rect width="48" height="48" rx="8" fill="#E1E000"/>
<path d="M24.0765 14.9985H24.21C25.443 15.003 31.6905 15.048 33.375 15.501C33.8842 15.6393 34.3483 15.9087 34.7207 16.2825C35.0932 16.6563 35.361 17.1213 35.4975 17.631C35.649 18.201 35.7555 18.9555 35.8275 19.734L35.8425 19.89L35.8755 20.28L35.8875 20.436C35.985 21.807 35.997 23.091 35.9985 23.3715V23.484C35.997 23.775 35.9835 25.146 35.8755 26.574L35.8635 26.7315L35.85 26.8875C35.775 27.7455 35.664 28.5975 35.4975 29.2245C35.3615 29.7344 35.0938 30.1996 34.7212 30.5735C34.3487 30.9473 33.8844 31.2167 33.375 31.3545C31.635 31.8225 25.0215 31.8555 24.105 31.857H23.892C23.4285 31.857 21.5115 31.848 19.5015 31.779L19.2465 31.77L19.116 31.764L18.8595 31.7535L18.603 31.743C16.938 31.6695 15.3525 31.551 14.622 31.353C14.1127 31.2153 13.6486 30.9462 13.2761 30.5726C12.9036 30.1991 12.6358 29.7342 12.4995 29.2245C12.333 28.599 12.222 27.7455 12.147 26.8875L12.135 26.73L12.123 26.574C12.049 25.5576 12.0079 24.5391 12 23.52L12 23.3355C12.003 23.013 12.015 21.8985 12.096 20.6685L12.1065 20.514L12.111 20.436L12.123 20.28L12.156 19.89L12.171 19.734C12.243 18.9555 12.3495 18.1995 12.501 17.631C12.637 17.1211 12.9047 16.6559 13.2773 16.282C13.6498 15.9082 14.1141 15.6388 14.6235 15.501C15.354 15.306 16.9395 15.186 18.6045 15.111L18.8595 15.1005L19.1175 15.0915L19.2465 15.087L19.503 15.0765C20.9306 15.0306 22.3587 15.0051 23.787 15H24.0765V14.9985ZM21.6 19.8135V27.0405L27.8355 23.4285L21.6 19.8135Z" fill="#001A70"/>
</svg>
